<svg width="374" height="374" viewBox="0 0 374 374" fill="none" xmlns="http://www.w3.org/2000/svg">
<path fill-rule="evenodd" clip-rule="evenodd" d="M47 37.7826C42.8757 16.2682 23.7704 0 0.824561 0C0.369169 0 0 0.365242 0 0.815789C0 23.5175 16.4431 42.4195 38.1889 46.5C16.4431 50.5805 0 69.4825 0 92.1842C0 92.6348 0.369169 93 0.824561 93C23.7704 93 42.8757 76.7318 47 55.2174C51.1243 76.7318 70.2296 93 93.1754 93C93.6308 93 94 92.6348 94 92.1842C94 69.4825 77.5569 50.5805 55.8111 46.5C77.5569 42.4195 94 23.5175 94 0.815789C94 0.365242 93.6308 0 93.1754 0C70.2296 0 51.1243 16.2682 47 37.7826ZM47.832 47.3232C48.2708 71.4497 67.9575 90.9269 92.3434 91.361C91.9046 67.2345 72.218 47.7573 47.832 47.3232ZM92.3434 1.63898C67.9575 2.07307 48.2708 21.5503 47.832 45.6768C72.218 45.2427 91.9046 25.7655 92.3434 1.63898ZM46.168 47.3232C45.7292 71.4497 26.0425 90.9269 1.6566 91.361C2.09536 67.2345 21.782 47.7573 46.168 47.3232ZM1.6566 1.63898C26.0425 2.07306 45.7292 21.5503 46.168 45.6768C21.782 45.2427 2.09535 25.7655 1.6566 1.63898Z" fill="url(#paint0_radial_423_959)"/>
<path fill-rule="evenodd" clip-rule="evenodd" d="M140.5 37.7826C136.42 16.2682 117.517 0 94.8158 0C94.3652 0 94 0.365242 94 0.815789C94 23.5175 110.268 42.4195 131.783 46.5C110.268 50.5805 94 69.4825 94 92.1842C94 92.6348 94.3652 93 94.8158 93C117.517 93 136.42 76.7318 140.5 55.2174C144.58 76.7318 163.483 93 186.184 93C186.635 93 187 92.6348 187 92.1842C187 69.4825 170.732 50.5805 149.217 46.5C170.732 42.4195 187 23.5175 187 0.815789C187 0.365242 186.635 0 186.184 0C163.483 0 144.58 16.2682 140.5 37.7826ZM141.323 47.3232C141.757 71.4497 161.235 90.9269 185.361 91.361C184.927 67.2345 165.45 47.7573 141.323 47.3232ZM185.361 1.63898C161.235 2.07307 141.757 21.5503 141.323 45.6768C165.45 45.2427 184.927 25.7655 185.361 1.63898ZM139.677 47.3232C139.243 71.4497 119.765 90.9269 95.639 91.361C96.0731 67.2345 115.55 47.7573 139.677 47.3232ZM95.639 1.63898C119.765 2.07306 139.243 21.5503 139.677 45.6768C115.55 45.2427 96.0731 25.7655 95.639 1.63898Z" fill="url(#paint1_radial_423_959)"/>
<path fill-rule="evenodd" clip-rule="evenodd" d="M234 37.7826C229.876 16.2682 210.77 0 187.825 0C187.369 0 187 0.365242 187 0.815789C187 23.5175 203.443 42.4195 225.189 46.5C203.443 50.5805 187 69.4825 187 92.1842C187 92.6348 187.369 93 187.825 93C210.77 93 229.876 76.7318 234 55.2174C238.124 76.7318 257.23 93 280.175 93C280.631 93 281 92.6348 281 92.1842C281 69.4825 264.557 50.5805 242.811 46.5C264.557 42.4195 281 23.5175 281 0.815789C281 0.365242 280.631 0 280.175 0C257.23 0 238.124 16.2682 234 37.7826ZM234.832 47.3232C235.271 71.4497 254.957 90.9269 279.343 91.361C278.905 67.2345 259.218 47.7573 234.832 47.3232ZM279.343 1.63898C254.957 2.07307 235.271 21.5503 234.832 45.6768C259.218 45.2427 278.905 25.7655 279.343 1.63898ZM233.168 47.3232C232.729 71.4497 213.043 90.9269 188.657 91.361C189.095 67.2345 208.782 47.7573 233.168 47.3232ZM188.657 1.63898C213.043 2.07306 232.729 21.5503 233.168 45.6768C208.782 45.2427 189.095 25.7655 188.657 1.63898Z" fill="url(#paint2_radial_423_959)"/>
<path fill-rule="evenodd" clip-rule="evenodd" d="M327.5 37.7826C323.42 16.2682 304.517 0 281.816 0C281.365 0 281 0.365242 281 0.815789C281 23.5175 297.268 42.4195 318.783 46.5C297.268 50.5805 281 69.4825 281 92.1842C281 92.6348 281.365 93 281.816 93C304.517 93 323.42 76.7318 327.5 55.2174C331.58 76.7318 350.483 93 373.184 93C373.635 93 374 92.6348 374 92.1842C374 69.4825 357.732 50.5805 336.217 46.5C357.732 42.4195 374 23.5175 374 0.815789C374 0.365242 373.635 0 373.184 0C350.483 0 331.58 16.2682 327.5 37.7826ZM328.323 47.3232C328.757 71.4497 348.235 90.9269 372.361 91.361C371.927 67.2345 352.45 47.7573 328.323 47.3232ZM372.361 1.63898C348.235 2.07307 328.757 21.5503 328.323 45.6768C352.45 45.2427 371.927 25.7655 372.361 1.63898ZM326.677 47.3232C326.243 71.4497 306.765 90.9269 282.639 91.361C283.073 67.2345 302.55 47.7573 326.677 47.3232ZM282.639 1.63898C306.765 2.07306 326.243 21.5503 326.677 45.6768C302.55 45.2427 283.073 25.7655 282.639 1.63898Z" fill="url(#paint3_radial_423_959)"/>
<path fill-rule="evenodd" clip-rule="evenodd" d="M47 148.811C42.8757 170.557 23.7704 187 0.824561 187C0.369169 187 0 186.631 0 186.175C0 163.23 16.4431 144.124 38.1889 140C16.4431 135.876 0 116.77 0 93.8246C0 93.3692 0.369169 93 0.824561 93C23.7704 93 42.8757 109.443 47 131.189C51.1243 109.443 70.2296 93 93.1754 93C93.6308 93 94 93.3692 94 93.8246C94 116.77 77.5569 135.876 55.8111 140C77.5569 144.124 94 163.23 94 186.175C94 186.631 93.6308 187 93.1754 187C70.2296 187 51.1243 170.557 47 148.811ZM47.832 139.168C48.2708 114.782 67.9575 95.0954 92.3434 94.6566C91.9046 119.043 72.218 138.729 47.832 139.168ZM92.3434 185.343C67.9575 184.905 48.2708 165.218 47.832 140.832C72.218 141.271 91.9046 160.957 92.3434 185.343ZM46.168 139.168C45.7292 114.782 26.0425 95.0954 1.6566 94.6566C2.09536 119.043 21.782 138.729 46.168 139.168ZM1.6566 185.343C26.0425 184.905 45.7292 165.218 46.168 140.832C21.782 141.271 2.09535 160.957 1.6566 185.343Z" fill="url(#paint4_radial_423_959)"/>
<path fill-rule="evenodd" clip-rule="evenodd" d="M140.5 148.811C136.42 170.557 117.517 187 94.8158 187C94.3652 187 94 186.631 94 186.175C94 163.23 110.268 144.124 131.783 140C110.268 135.876 94 116.77 94 93.8246C94 93.3692 94.3652 93 94.8158 93C117.517 93 136.42 109.443 140.5 131.189C144.58 109.443 163.483 93 186.184 93C186.635 93 187 93.3692 187 93.8246C187 116.77 170.732 135.876 149.217 140C170.732 144.124 187 163.23 187 186.175C187 186.631 186.635 187 186.184 187C163.483 187 144.58 170.557 140.5 148.811ZM141.323 139.168C141.757 114.782 161.235 95.0954 185.361 94.6566C184.927 119.043 165.45 138.729 141.323 139.168ZM185.361 185.343C161.235 184.905 141.757 165.218 141.323 140.832C165.45 141.271 184.927 160.957 185.361 185.343ZM139.677 139.168C139.243 114.782 119.765 95.0954 95.639 94.6566C96.0731 119.043 115.55 138.729 139.677 139.168ZM95.639 185.343C119.765 184.905 139.243 165.218 139.677 140.832C115.55 141.271 96.0731 160.957 95.639 185.343Z" fill="url(#paint5_radial_423_959)"/>
<path fill-rule="evenodd" clip-rule="evenodd" d="M234 148.811C229.876 170.557 210.77 187 187.825 187C187.369 187 187 186.631 187 186.175C187 163.23 203.443 144.124 225.189 140C203.443 135.876 187 116.77 187 93.8246C187 93.3692 187.369 93 187.825 93C210.77 93 229.876 109.443 234 131.189C238.124 109.443 257.23 93 280.175 93C280.631 93 281 93.3692 281 93.8246C281 116.77 264.557 135.876 242.811 140C264.557 144.124 281 163.23 281 186.175C281 186.631 280.631 187 280.175 187C257.23 187 238.124 170.557 234 148.811ZM234.832 139.168C235.271 114.782 254.957 95.0954 279.343 94.6566C278.905 119.043 259.218 138.729 234.832 139.168ZM279.343 185.343C254.957 184.905 235.271 165.218 234.832 140.832C259.218 141.271 278.905 160.957 279.343 185.343ZM233.168 139.168C232.729 114.782 213.043 95.0954 188.657 94.6566C189.095 119.043 208.782 138.729 233.168 139.168ZM188.657 185.343C213.043 184.905 232.729 165.218 233.168 140.832C208.782 141.271 189.095 160.957 188.657 185.343Z" fill="url(#paint6_radial_423_959)"/>
<path fill-rule="evenodd" clip-rule="evenodd" d="M327.5 148.811C323.42 170.557 304.517 187 281.816 187C281.365 187 281 186.631 281 186.175C281 163.23 297.268 144.124 318.783 140C297.268 135.876 281 116.77 281 93.8246C281 93.3692 281.365 93 281.816 93C304.517 93 323.42 109.443 327.5 131.189C331.58 109.443 350.483 93 373.184 93C373.635 93 374 93.3692 374 93.8246C374 116.77 357.732 135.876 336.217 140C357.732 144.124 374 163.23 374 186.175C374 186.631 373.635 187 373.184 187C350.483 187 331.58 170.557 327.5 148.811ZM328.323 139.168C328.757 114.782 348.235 95.0954 372.361 94.6566C371.927 119.043 352.45 138.729 328.323 139.168ZM372.361 185.343C348.235 184.905 328.757 165.218 328.323 140.832C352.45 141.271 371.927 160.957 372.361 185.343ZM326.677 139.168C326.243 114.782 306.765 95.0954 282.639 94.6566C283.073 119.043 302.55 138.729 326.677 139.168ZM282.639 185.343C306.765 184.905 326.243 165.218 326.677 140.832C302.55 141.271 283.073 160.957 282.639 185.343Z" fill="url(#paint7_radial_423_959)"/>
<path fill-rule="evenodd" clip-rule="evenodd" d="M47 224.783C42.8757 203.268 23.7704 187 0.824561 187C0.369169 187 0 187.365 0 187.816C0 210.517 16.4431 229.42 38.1889 233.5C16.4431 237.58 0 256.483 0 279.184C0 279.635 0.369169 280 0.824561 280C23.7704 280 42.8757 263.732 47 242.217C51.1243 263.732 70.2296 280 93.1754 280C93.6308 280 94 279.635 94 279.184C94 256.483 77.5569 237.58 55.8111 233.5C77.5569 229.42 94 210.517 94 187.816C94 187.365 93.6308 187 93.1754 187C70.2296 187 51.1243 203.268 47 224.783ZM47.832 234.323C48.2708 258.45 67.9575 277.927 92.3434 278.361C91.9046 254.235 72.218 234.757 47.832 234.323ZM92.3434 188.639C67.9575 189.073 48.2708 208.55 47.832 232.677C72.218 232.243 91.9046 212.765 92.3434 188.639ZM46.168 234.323C45.7292 258.45 26.0425 277.927 1.6566 278.361C2.09536 254.235 21.782 234.757 46.168 234.323ZM1.6566 188.639C26.0425 189.073 45.7292 208.55 46.168 232.677C21.782 232.243 2.09535 212.765 1.6566 188.639Z" fill="url(#paint8_radial_423_959)"/>
<path fill-rule="evenodd" clip-rule="evenodd" d="M140.5 224.783C136.42 203.268 117.517 187 94.8158 187C94.3652 187 94 187.365 94 187.816C94 210.517 110.268 229.42 131.783 233.5C110.268 237.58 94 256.483 94 279.184C94 279.635 94.3652 280 94.8158 280C117.517 280 136.42 263.732 140.5 242.217C144.58 263.732 163.483 280 186.184 280C186.635 280 187 279.635 187 279.184C187 256.483 170.732 237.58 149.217 233.5C170.732 229.42 187 210.517 187 187.816C187 187.365 186.635 187 186.184 187C163.483 187 144.58 203.268 140.5 224.783ZM141.323 234.323C141.757 258.45 161.235 277.927 185.361 278.361C184.927 254.235 165.45 234.757 141.323 234.323ZM185.361 188.639C161.235 189.073 141.757 208.55 141.323 232.677C165.45 232.243 184.927 212.765 185.361 188.639ZM139.677 234.323C139.243 258.45 119.765 277.927 95.639 278.361C96.0731 254.235 115.55 234.757 139.677 234.323ZM95.639 188.639C119.765 189.073 139.243 208.55 139.677 232.677C115.55 232.243 96.0731 212.765 95.639 188.639Z" fill="url(#paint9_radial_423_959)"/>
<path fill-rule="evenodd" clip-rule="evenodd" d="M234 224.783C229.876 203.268 210.77 187 187.825 187C187.369 187 187 187.365 187 187.816C187 210.517 203.443 229.42 225.189 233.5C203.443 237.58 187 256.483 187 279.184C187 279.635 187.369 280 187.825 280C210.77 280 229.876 263.732 234 242.217C238.124 263.732 257.23 280 280.175 280C280.631 280 281 279.635 281 279.184C281 256.483 264.557 237.58 242.811 233.5C264.557 229.42 281 210.517 281 187.816C281 187.365 280.631 187 280.175 187C257.23 187 238.124 203.268 234 224.783ZM234.832 234.323C235.271 258.45 254.957 277.927 279.343 278.361C278.905 254.235 259.218 234.757 234.832 234.323ZM279.343 188.639C254.957 189.073 235.271 208.55 234.832 232.677C259.218 232.243 278.905 212.765 279.343 188.639ZM233.168 234.323C232.729 258.45 213.043 277.927 188.657 278.361C189.095 254.235 208.782 234.757 233.168 234.323ZM188.657 188.639C213.043 189.073 232.729 208.55 233.168 232.677C208.782 232.243 189.095 212.765 188.657 188.639Z" fill="url(#paint10_radial_423_959)"/>
<path fill-rule="evenodd" clip-rule="evenodd" d="M327.5 224.783C323.42 203.268 304.517 187 281.816 187C281.365 187 281 187.365 281 187.816C281 210.517 297.268 229.42 318.783 233.5C297.268 237.58 281 256.483 281 279.184C281 279.635 281.365 280 281.816 280C304.517 280 323.42 263.732 327.5 242.217C331.58 263.732 350.483 280 373.184 280C373.635 280 374 279.635 374 279.184C374 256.483 357.732 237.58 336.217 233.5C357.732 229.42 374 210.517 374 187.816C374 187.365 373.635 187 373.184 187C350.483 187 331.58 203.268 327.5 224.783ZM328.323 234.323C328.757 258.45 348.235 277.927 372.361 278.361C371.927 254.235 352.45 234.757 328.323 234.323ZM372.361 188.639C348.235 189.073 328.757 208.55 328.323 232.677C352.45 232.243 371.927 212.765 372.361 188.639ZM326.677 234.323C326.243 258.45 306.765 277.927 282.639 278.361C283.073 254.235 302.55 234.757 326.677 234.323ZM282.639 188.639C306.765 189.073 326.243 208.55 326.677 232.677C302.55 232.243 283.073 212.765 282.639 188.639Z" fill="url(#paint11_radial_423_959)"/>
<path fill-rule="evenodd" clip-rule="evenodd" d="M47 318.189C42.8757 296.443 23.7704 280 0.824561 280C0.369169 280 0 280.369 0 280.825C0 303.77 16.4431 322.876 38.1889 327C16.4431 331.124 0 350.23 0 373.175C0 373.631 0.369169 374 0.824561 374C23.7704 374 42.8757 357.557 47 335.811C51.1243 357.557 70.2296 374 93.1754 374C93.6308 374 94 373.631 94 373.175C94 350.23 77.5569 331.124 55.8111 327C77.5569 322.876 94 303.77 94 280.825C94 280.369 93.6308 280 93.1754 280C70.2296 280 51.1243 296.443 47 318.189ZM47.832 327.832C48.2708 352.218 67.9575 371.905 92.3434 372.343C91.9046 347.957 72.218 328.271 47.832 327.832ZM92.3434 281.657C67.9575 282.095 48.2708 301.782 47.832 326.168C72.218 325.729 91.9046 306.043 92.3434 281.657ZM46.168 327.832C45.7292 352.218 26.0425 371.905 1.6566 372.343C2.09536 347.957 21.782 328.271 46.168 327.832ZM1.6566 281.657C26.0425 282.095 45.7292 301.782 46.168 326.168C21.782 325.729 2.09535 306.043 1.6566 281.657Z" fill="url(#paint12_radial_423_959)"/>
<path fill-rule="evenodd" clip-rule="evenodd" d="M140.5 318.189C136.42 296.443 117.517 280 94.8158 280C94.3652 280 94 280.369 94 280.825C94 303.77 110.268 322.876 131.783 327C110.268 331.124 94 350.23 94 373.175C94 373.631 94.3652 374 94.8158 374C117.517 374 136.42 357.557 140.5 335.811C144.58 357.557 163.483 374 186.184 374C186.635 374 187 373.631 187 373.175C187 350.23 170.732 331.124 149.217 327C170.732 322.876 187 303.77 187 280.825C187 280.369 186.635 280 186.184 280C163.483 280 144.58 296.443 140.5 318.189ZM141.323 327.832C141.757 352.218 161.235 371.905 185.361 372.343C184.927 347.957 165.45 328.271 141.323 327.832ZM185.361 281.657C161.235 282.095 141.757 301.782 141.323 326.168C165.45 325.729 184.927 306.043 185.361 281.657ZM139.677 327.832C139.243 352.218 119.765 371.905 95.639 372.343C96.0731 347.957 115.55 328.271 139.677 327.832ZM95.639 281.657C119.765 282.095 139.243 301.782 139.677 326.168C115.55 325.729 96.0731 306.043 95.639 281.657Z" fill="url(#paint13_radial_423_959)"/>
<path fill-rule="evenodd" clip-rule="evenodd" d="M234 318.189C229.876 296.443 210.77 280 187.825 280C187.369 280 187 280.369 187 280.825C187 303.77 203.443 322.876 225.189 327C203.443 331.124 187 350.23 187 373.175C187 373.631 187.369 374 187.825 374C210.77 374 229.876 357.557 234 335.811C238.124 357.557 257.23 374 280.175 374C280.631 374 281 373.631 281 373.175C281 350.23 264.557 331.124 242.811 327C264.557 322.876 281 303.77 281 280.825C281 280.369 280.631 280 280.175 280C257.23 280 238.124 296.443 234 318.189ZM234.832 327.832C235.271 352.218 254.957 371.905 279.343 372.343C278.905 347.957 259.218 328.271 234.832 327.832ZM279.343 281.657C254.957 282.095 235.271 301.782 234.832 326.168C259.218 325.729 278.905 306.043 279.343 281.657ZM233.168 327.832C232.729 352.218 213.043 371.905 188.657 372.343C189.095 347.957 208.782 328.271 233.168 327.832ZM188.657 281.657C213.043 282.095 232.729 301.782 233.168 326.168C208.782 325.729 189.095 306.043 188.657 281.657Z" fill="url(#paint14_radial_423_959)"/>
<path fill-rule="evenodd" clip-rule="evenodd" d="M327.5 318.189C323.42 296.443 304.517 280 281.816 280C281.365 280 281 280.369 281 280.825C281 303.77 297.268 322.876 318.783 327C297.268 331.124 281 350.23 281 373.175C281 373.631 281.365 374 281.816 374C304.517 374 323.42 357.557 327.5 335.811C331.58 357.557 350.483 374 373.184 374C373.635 374 374 373.631 374 373.175C374 350.23 357.732 331.124 336.217 327C357.732 322.876 374 303.77 374 280.825C374 280.369 373.635 280 373.184 280C350.483 280 331.58 296.443 327.5 318.189ZM328.323 327.832C328.757 352.218 348.235 371.905 372.361 372.343C371.927 347.957 352.45 328.271 328.323 327.832ZM372.361 281.657C348.235 282.095 328.757 301.782 328.323 326.168C352.45 325.729 371.927 306.043 372.361 281.657ZM326.677 327.832C326.243 352.218 306.765 371.905 282.639 372.343C283.073 347.957 302.55 328.271 326.677 327.832ZM282.639 281.657C306.765 282.095 326.243 301.782 326.677 326.168C302.55 325.729 283.073 306.043 282.639 281.657Z" fill="url(#paint15_radial_423_959)"/>
<defs>
<radialGradient id="paint0_radial_423_959" cx="0" cy="0" r="1" gradientUnits="userSpaceOnUse" gradientTransform="translate(47 46.5) rotate(90) scale(46.5 47)">
<stop stop-color="white"/>
<stop offset="1" stop-color="white" stop-opacity="0.24"/>
</radialGradient>
<radialGradient id="paint1_radial_423_959" cx="0" cy="0" r="1" gradientUnits="userSpaceOnUse" gradientTransform="translate(140.5 46.5) rotate(90) scale(46.5)">
<stop stop-color="white"/>
<stop offset="1" stop-color="white" stop-opacity="0.24"/>
</radialGradient>
<radialGradient id="paint2_radial_423_959" cx="0" cy="0" r="1" gradientUnits="userSpaceOnUse" gradientTransform="translate(234 46.5) rotate(90) scale(46.5 47)">
<stop stop-color="white"/>
<stop offset="1" stop-color="white" stop-opacity="0.24"/>
</radialGradient>
<radialGradient id="paint3_radial_423_959" cx="0" cy="0" r="1" gradientUnits="userSpaceOnUse" gradientTransform="translate(327.5 46.5) rotate(90) scale(46.5)">
<stop stop-color="white"/>
<stop offset="1" stop-color="white" stop-opacity="0.24"/>
</radialGradient>
<radialGradient id="paint4_radial_423_959" cx="0" cy="0" r="1" gradientUnits="userSpaceOnUse" gradientTransform="translate(47 140) rotate(-90) scale(47)">
<stop stop-color="white"/>
<stop offset="1" stop-color="white" stop-opacity="0.24"/>
</radialGradient>
<radialGradient id="paint5_radial_423_959" cx="0" cy="0" r="1" gradientUnits="userSpaceOnUse" gradientTransform="translate(140.5 140) rotate(-90) scale(47 46.5)">
<stop stop-color="white"/>
<stop offset="1" stop-color="white" stop-opacity="0.24"/>
</radialGradient>
<radialGradient id="paint6_radial_423_959" cx="0" cy="0" r="1" gradientUnits="userSpaceOnUse" gradientTransform="translate(234 140) rotate(-90) scale(47)">
<stop stop-color="white"/>
<stop offset="1" stop-color="white" stop-opacity="0.24"/>
</radialGradient>
<radialGradient id="paint7_radial_423_959" cx="0" cy="0" r="1" gradientUnits="userSpaceOnUse" gradientTransform="translate(327.5 140) rotate(-90) scale(47 46.5)">
<stop stop-color="white"/>
<stop offset="1" stop-color="white" stop-opacity="0.24"/>
</radialGradient>
<radialGradient id="paint8_radial_423_959" cx="0" cy="0" r="1" gradientUnits="userSpaceOnUse" gradientTransform="translate(47 233.5) rotate(90) scale(46.5 47)">
<stop stop-color="white"/>
<stop offset="1" stop-color="white" stop-opacity="0.24"/>
</radialGradient>
<radialGradient id="paint9_radial_423_959" cx="0" cy="0" r="1" gradientUnits="userSpaceOnUse" gradientTransform="translate(140.5 233.5) rotate(90) scale(46.5)">
<stop stop-color="white"/>
<stop offset="1" stop-color="white" stop-opacity="0.24"/>
</radialGradient>
<radialGradient id="paint10_radial_423_959" cx="0" cy="0" r="1" gradientUnits="userSpaceOnUse" gradientTransform="translate(234 233.5) rotate(90) scale(46.5 47)">
<stop stop-color="white"/>
<stop offset="1" stop-color="white" stop-opacity="0.24"/>
</radialGradient>
<radialGradient id="paint11_radial_423_959" cx="0" cy="0" r="1" gradientUnits="userSpaceOnUse" gradientTransform="translate(327.5 233.5) rotate(90) scale(46.5)">
<stop stop-color="white"/>
<stop offset="1" stop-color="white" stop-opacity="0.24"/>
</radialGradient>
<radialGradient id="paint12_radial_423_959" cx="0" cy="0" r="1" gradientUnits="userSpaceOnUse" gradientTransform="translate(47 327) rotate(90) scale(47)">
<stop stop-color="white"/>
<stop offset="1" stop-color="white" stop-opacity="0.24"/>
</radialGradient>
<radialGradient id="paint13_radial_423_959" cx="0" cy="0" r="1" gradientUnits="userSpaceOnUse" gradientTransform="translate(140.5 327) rotate(90) scale(47 46.5)">
<stop stop-color="white"/>
<stop offset="1" stop-color="white" stop-opacity="0.24"/>
</radialGradient>
<radialGradient id="paint14_radial_423_959" cx="0" cy="0" r="1" gradientUnits="userSpaceOnUse" gradientTransform="translate(234 327) rotate(90) scale(47)">
<stop stop-color="white"/>
<stop offset="1" stop-color="white" stop-opacity="0.24"/>
</radialGradient>
<radialGradient id="paint15_radial_423_959" cx="0" cy="0" r="1" gradientUnits="userSpaceOnUse" gradientTransform="translate(327.5 327) rotate(90) scale(47 46.5)">
<stop stop-color="white"/>
<stop offset="1" stop-color="white" stop-opacity="0.24"/>
</radialGradient>
</defs>
</svg>
