<svg width="93" height="24" viewBox="0 0 93 24" fill="none" xmlns="http://www.w3.org/2000/svg">
<path d="M36.2031 11.1547L33.1741 4.49643H29.615L34.5542 14.0713V19.5027H37.8632V14.0713L42.7912 4.49643H39.2433L36.2031 11.1547Z" fill="#EB4944"/>
<path d="M47.3667 13.0514H53.2601V10.5265H47.3667V7.11465H54.2868V4.49643H47.3667H46.3185H44.0986V19.5027H46.3185H47.3667H54.297V16.8955H47.3667V13.0514Z" fill="#EB4944"/>
<path d="M66.1249 16.1334L58.5091 4.49643H56.4966V19.5027H58.5091V7.89808L66.0932 19.5027H68.1169V4.49643H66.1249V16.1334Z" fill="#EB4944"/>
<path d="M72.1874 4.49643H70.6111V19.5027H72.6236V12.8657H78.942V11.2582H72.6236V6.11503H79.9688V4.49643H72.6236H72.1874Z" fill="#EB4944"/>
<path d="M93.0001 4.49643H88.1548H86.1628H81.3286V6.11503H86.1628V19.5027H88.1548V6.11503H93.0001V4.49643Z" fill="#EB4944"/>
<path d="M18.4689 0H5.69067C4.18149 0.00024495 2.73418 0.595915 1.66703 1.65602C0.599877 2.71613 0.000246579 4.15387 0 5.65309L0 18.3469C0.000246579 19.8461 0.599877 21.2839 1.66703 22.344C2.73418 23.4041 4.18149 23.9998 5.69067 24H18.4689C19.9781 23.9998 21.4254 23.4041 22.4925 22.344C23.5597 21.2839 24.1593 19.8461 24.1595 18.3469V5.65309C24.1593 4.15387 23.5597 2.71613 22.4925 1.65602C21.4254 0.595915 19.9781 0.00024495 18.4689 0V0ZM19.3059 8.01355C19.306 8.22322 19.2645 8.43085 19.1837 8.62455C19.1029 8.81825 18.9844 8.99421 18.835 9.14234C18.6856 9.29047 18.5083 9.40787 18.3132 9.48779C18.118 9.56772 17.909 9.60862 17.6979 9.60813H12.8824V11.2027H17.6979C17.9087 11.2027 18.1173 11.244 18.312 11.3241C18.5067 11.4043 18.6836 11.5217 18.8326 11.6698C18.9816 11.8179 19.0997 11.9937 19.1803 12.1871C19.2609 12.3806 19.3023 12.5879 19.3021 12.7973H6.46164V14.3919H19.3021V15.9828H6.46164V17.581H19.3021C19.3021 18.0037 19.1331 18.409 18.8323 18.7079C18.5314 19.0068 18.1234 19.1747 17.6979 19.1747H6.46164C6.25089 19.1748 6.04218 19.1337 5.84743 19.0536C5.65269 18.9736 5.47573 18.8562 5.32666 18.7082C5.1776 18.5602 5.05934 18.3845 4.97866 18.1911C4.89799 17.9977 4.85646 17.7904 4.85646 17.581V12.7973C4.85646 12.3744 5.02558 11.9688 5.32661 11.6698C5.62764 11.3707 6.03592 11.2027 6.46164 11.2027H11.2772V9.60813H6.46164C6.03592 9.60813 5.62764 9.44013 5.32661 9.14109C5.02558 8.84205 4.85646 8.43646 4.85646 8.01355V4.82439H6.46164V8.01355H17.6979V4.82439H19.3021L19.3059 8.01355Z" fill="#EB4944"/>
</svg>
