<svg width="94" height="93" viewBox="0 0 94 93" fill="none" xmlns="http://www.w3.org/2000/svg">
<path fill-rule="evenodd" clip-rule="evenodd" d="M47 37.7826C42.8757 16.2682 23.7704 0 0.824561 0C0.369169 0 0 0.365242 0 0.815789C0 23.5175 16.4431 42.4195 38.1889 46.5C16.4431 50.5805 0 69.4825 0 92.1842C0 92.6348 0.369169 93 0.824561 93C23.7704 93 42.8757 76.7318 47 55.2174C51.1243 76.7318 70.2296 93 93.1754 93C93.6308 93 94 92.6348 94 92.1842C94 69.4825 77.5569 50.5805 55.8111 46.5C77.5569 42.4195 94 23.5175 94 0.815789C94 0.365242 93.6308 0 93.1754 0C70.2296 0 51.1243 16.2682 47 37.7826ZM47.832 47.3232C48.2708 71.4497 67.9575 90.9269 92.3434 91.361C91.9046 67.2345 72.218 47.7573 47.832 47.3232ZM92.3434 1.63898C67.9575 2.07307 48.2708 21.5503 47.832 45.6768C72.218 45.2427 91.9046 25.7655 92.3434 1.63898ZM46.168 47.3232C45.7292 71.4497 26.0425 90.9269 1.6566 91.361C2.09536 67.2345 21.782 47.7573 46.168 47.3232ZM1.6566 1.63898C26.0425 2.07306 45.7292 21.5503 46.168 45.6768C21.782 45.2427 2.09535 25.7655 1.6566 1.63898Z" fill="url(#paint0_radial_423_960)"/>
<defs>
<radialGradient id="paint0_radial_423_960" cx="0" cy="0" r="1" gradientUnits="userSpaceOnUse">
<stop stop-color="white"/>
<stop offset="1" stop-color="white" stop-opacity="0.24"/>
</radialGradient>
</defs>
</svg>
